<svg width="98" height="75" viewBox="0 0 98 75" fill="none" xmlns="http://www.w3.org/2000/svg">
<path d="M78.2846 48.5544H20.4752V37.0505H71.8468C74.3625 39.5893 75.7689 41.0086 78.2759 43.5385V48.5456L78.2846 48.5544Z" fill="#0B0C0C"/>
<path d="M38.1814 42.7627H34.8533V43.9704H38.1814V42.7627Z" fill="#63B22F"/>
<path d="M44.235 44.5787C45.7112 44.5787 46.6983 43.5825 46.6983 42.0928C46.6983 40.603 45.7112 39.5452 44.235 39.5452H39.3433V46.3241H41.1078V45.2574C41.1078 45.1605 41.0466 45.0723 40.9593 45.0371L40.4614 44.9048V44.5787H44.235ZM41.1078 41.1231H44.2C44.6368 41.1231 44.9425 41.4228 44.9425 41.8724V42.2603C44.9425 42.701 44.6455 43.0096 44.2 43.0096H41.1078V41.1319V41.1231Z" fill="#63B22F"/>
<path d="M49.3712 39.5452L46.0082 46.3241H47.9561L48.6375 44.8519H52.1315L52.8129 46.3241H54.7608L51.3891 39.5452H49.3887H49.3712ZM49.2489 43.4768L50.3321 41.1143H50.4282L51.5113 43.4768H49.2489Z" fill="#63B22F"/>
<path d="M57.5648 41.0173H59.9408C60.5697 41.0173 61.0152 41.4052 61.0938 42.0663H62.8583C62.7535 40.4884 61.6441 39.457 60.0194 39.457H57.4862C55.7653 39.457 54.6298 40.6118 54.6298 42.3396V43.5385C54.6298 45.2663 55.7741 46.4211 57.4862 46.4211H60.0194C61.6266 46.4211 62.7447 45.3985 62.8583 43.8294H61.0938C61.0152 44.4641 60.5697 44.852 59.9408 44.852H57.5648C56.866 44.852 56.3943 44.3759 56.3943 43.6707V42.1986C56.3943 41.4934 56.866 41.0173 57.5648 41.0173Z" fill="#63B22F"/>
<path d="M68.2829 42.8861L71.2354 39.5452H69.0603L66.7717 42.1457H65.3828V39.5452H63.6183V46.3241H65.3828V44.4288C65.3828 44.3318 65.3216 44.2437 65.2343 44.2084L64.7364 44.0762V43.7236H66.7717L69.0603 46.3329H71.2354L68.2829 42.9919V42.895V42.8861Z" fill="#63B22F"/>
<path d="M33.0015 39.5452L31.106 43.9704C31.0536 44.1026 31.0186 44.2349 31.0186 44.3759L31.0448 45.0194H30.3023L30.3285 44.3407C30.3285 44.1996 30.3023 44.0586 30.2412 43.9352L28.3981 39.5452H26.3191L29.5686 46.3241H31.7873L35.0368 39.5452H32.9928H33.0015Z" fill="#63B22F"/>
<path d="M77.0093 49.6564V52.8563L74.1616 55.7301L71.314 58.6038H27.4284L23.5238 54.6634L21.7331 52.8563V49.6564H77.0093ZM78.2846 48.3782H20.4752V53.3852C22.991 55.924 24.3973 57.3433 26.9043 59.8732H71.8468C74.3625 57.3344 75.7689 55.9152 78.2759 53.3852V48.3782H78.2846Z" fill="#0B0C0C"/>
<path d="M27.7604 37.0505H23.3841V23.5985H20.2219V19.7903H27.7604V37.0505Z" fill="#0B0C0C"/>
<path d="M35.657 37.262C34.2943 37.262 33.0888 36.9976 32.0493 36.4598C31.0098 35.9221 30.2062 35.2169 29.621 34.3442C29.0357 33.4715 28.7474 32.5194 28.7474 31.4969C28.7474 30.7828 28.8173 30.1393 28.9483 29.5575C29.0794 28.9757 29.3152 28.4027 29.6297 27.8209C29.9529 27.2391 30.3984 26.6132 30.9749 25.9344L36.1374 19.8079H41.0466L36.2422 25.6083H36.5217C37.7359 25.6083 38.8016 25.8463 39.7188 26.3399C40.636 26.8336 41.3523 27.4859 41.8589 28.3322C42.3656 29.1785 42.6189 30.1305 42.6189 31.206C42.6189 32.2814 42.3306 33.3304 41.7454 34.256C41.1601 35.1816 40.3478 35.9221 39.3083 36.4687C38.26 37.0152 37.0459 37.2885 35.6657 37.2885L35.657 37.262ZM35.7094 33.5773C36.1112 33.5773 36.4955 33.4979 36.8624 33.3481C37.2293 33.1982 37.5176 32.9514 37.7447 32.6164C37.9718 32.2814 38.0853 31.8583 38.0853 31.3294C38.0853 30.7652 37.9718 30.3244 37.7447 29.9895C37.5176 29.6545 37.2206 29.4165 36.8624 29.2578C36.4955 29.1079 36.1199 29.0286 35.7094 29.0286C35.0979 29.0286 34.5476 29.2049 34.0497 29.5487C33.5518 29.9013 33.3072 30.4919 33.3072 31.3206C33.3072 31.8495 33.4208 32.2814 33.6653 32.6076C33.9099 32.9337 34.1982 33.1806 34.5651 33.3392C34.9319 33.4891 35.3163 33.5684 35.7181 33.5684L35.7094 33.5773Z" fill="#0B0C0C"/>
<path d="M48.026 34.3972C48.026 35.2171 47.7727 35.8782 47.266 36.3983C46.7594 36.9184 46.1042 37.174 45.2919 37.174C44.4795 37.174 43.8156 36.9184 43.309 36.3983C42.7936 35.8782 42.5403 35.2082 42.5403 34.3972C42.5403 33.5862 42.7936 32.8898 43.309 32.3697C43.8244 31.8496 44.4882 31.594 45.2919 31.594C46.0955 31.594 46.7594 31.8496 47.266 32.3697C47.7727 32.8898 48.026 33.5686 48.026 34.3972Z" fill="#0B0C0C"/>
<path d="M61.7227 31.92C61.7227 32.9426 61.4432 33.8594 60.8754 34.6616C60.3076 35.4726 59.5215 36.1073 58.4995 36.5745C57.4774 37.0417 56.2807 37.2797 54.8918 37.2797C53.5029 37.2797 52.2713 37.0417 51.2318 36.5745C50.1923 36.1073 49.3974 35.4638 48.8296 34.6616C48.2618 33.8506 47.9823 32.9338 47.9823 31.92C47.9823 31.0561 48.2269 30.298 48.7161 29.6633C49.2052 29.0286 49.8342 28.4997 50.6116 28.0942C49.9914 27.7064 49.4848 27.2303 49.0917 26.6662C48.6986 26.102 48.5064 25.432 48.5064 24.6475C48.5064 23.6778 48.7685 22.8051 49.2926 22.047C49.8167 21.2889 50.5504 20.6718 51.5113 20.2222C52.4634 19.7727 53.5903 19.5435 54.8918 19.5435C56.1934 19.5435 57.2853 19.7727 58.2287 20.2222C59.1721 20.6718 59.9058 21.2801 60.4299 22.047C60.954 22.8139 61.2161 23.6778 61.2161 24.6475C61.2161 25.432 61.0239 26.102 60.6308 26.6662C60.2378 27.2303 59.7399 27.7064 59.1109 28.0942C59.8709 28.4997 60.4911 29.0286 60.9802 29.6633C61.4694 30.298 61.714 31.0561 61.714 31.92H61.7227ZM52.4809 31.8231C52.4809 32.2286 52.577 32.59 52.7604 32.8985C52.9439 33.2071 53.2147 33.4363 53.5728 33.6038C53.931 33.7624 54.3677 33.8418 54.8918 33.8418C55.4159 33.8418 55.8265 33.7624 56.1846 33.6038C56.5428 33.4451 56.8048 33.2071 56.997 32.8985C57.1804 32.59 57.2765 32.2374 57.2765 31.8231C57.2765 31.4528 57.1804 31.1179 56.997 30.827C56.8136 30.5361 56.5428 30.3069 56.1846 30.1394C55.8265 29.9719 55.3985 29.8837 54.8918 29.8837C54.3852 29.8837 53.931 29.9719 53.5728 30.1394C53.2147 30.3069 52.9526 30.5361 52.7604 30.827C52.577 31.1179 52.4809 31.4528 52.4809 31.8231ZM52.9876 24.7973C52.9876 25.291 53.1535 25.6877 53.4767 25.9874C53.8087 26.2871 54.2716 26.437 54.8831 26.437C55.4946 26.437 55.9313 26.2871 56.2458 25.9874C56.569 25.6877 56.7262 25.291 56.7262 24.7973C56.7262 24.2332 56.569 23.7924 56.2458 23.4662C55.9226 23.1401 55.4684 22.9814 54.8831 22.9814C54.2978 22.9814 53.8087 23.1401 53.4767 23.4662C53.1448 23.7924 52.9876 24.2332 52.9876 24.7973Z" fill="#0B0C0C"/>
<path d="M77.8654 20.0195L71.8469 37.0506H67.0076L61.0327 20.0195H65.8545L69.567 31.8143L73.4017 20.0195H77.8654Z" fill="#0B0C0C"/>
<path d="M25.3232 55.8445V51.6396H26.2055V55.0423H28.0137V55.8445H25.3232Z" fill="#0B0C0C"/>
<path d="M28.6165 55.8445V51.6396H29.4987V55.8445H28.6165Z" fill="#0B0C0C"/>
<path d="M31.3331 55.8445V52.4418H30.0228V51.6396H33.5344V52.4418H32.2154V55.8445H31.3331Z" fill="#0B0C0C"/>
<path d="M34.0671 55.8445V51.6396H34.9494V53.2969H36.7488V51.6396H37.6311V55.8445H36.7488V54.0638H34.9494V55.8445H34.0671Z" fill="#0B0C0C"/>
<path d="M38.4872 55.8445V51.6396H39.3694V55.8445H38.4872Z" fill="#0B0C0C"/>
<path d="M43.6409 54.2489C43.6409 55.2451 43.0119 55.9326 41.9288 55.9326C40.8456 55.9326 40.2167 55.2451 40.2167 54.2489V51.6484H41.0989V54.2666C41.0989 54.7867 41.3522 55.1393 41.9375 55.1393C42.5228 55.1393 42.7673 54.7867 42.7673 54.2666V51.6484H43.6496V54.2489H43.6409Z" fill="#0B0C0C"/>
<path d="M45.2831 53.0501V55.8445H44.4795V51.6396H45.5365L46.7419 54.7514L47.9561 51.6396H49.0131V55.8445H48.2094V53.0325L47.1088 55.8445H46.375L45.2831 53.0501Z" fill="#0B0C0C"/>
<path d="M75.8475 59.8554H50.795V48.3516H78.2584V57.4224C77.3151 58.3745 76.7909 58.9034 75.8475 59.8554Z" fill="#0B0C0C"/>
<path d="M57.1019 56.4438H53.2759V55.6945L54.8045 54.2048C55.3723 53.6494 55.6431 53.3585 55.6431 52.9265C55.6431 52.5739 55.4335 52.3712 55.0579 52.3712C54.6211 52.3712 54.3853 52.6268 54.3853 53.0588H53.1187C53.1187 51.9657 53.9485 51.1899 55.1277 51.1899C56.2109 51.1899 57.0145 51.8687 57.0145 52.7591C57.0145 53.4114 56.7787 53.7993 55.8266 54.7337L55.2762 55.2714H57.1019V56.4526V56.4438Z" fill="white"/>
<path d="M58.4558 56.4791C57.9666 56.4791 57.626 56.1353 57.626 55.6417C57.626 55.148 57.9666 54.7954 58.4558 54.7954C58.945 54.7954 59.2769 55.1392 59.2769 55.6417C59.2769 56.1441 58.945 56.4791 58.4558 56.4791Z" fill="white"/>
<path d="M61.7054 51.1812C63.0156 51.1812 63.7756 52.142 63.7756 53.861C63.7756 55.58 63.0419 56.5232 61.7054 56.5232C60.3689 56.5232 59.6351 55.5711 59.6351 53.861C59.6351 52.1508 60.3864 51.1812 61.7054 51.1812ZM61.7054 55.3419C62.1683 55.3419 62.4304 54.8218 62.4304 53.861C62.4304 52.9001 62.1683 52.3624 61.7054 52.3624C61.2424 52.3624 60.9804 52.9001 60.9804 53.861C60.9804 54.8218 61.2249 55.3419 61.7054 55.3419Z" fill="white"/>
<path d="M67.3831 55.5447H65.5575L65.2343 56.5144H63.8541L65.7759 51.2693H67.2696L69.1739 56.5144H67.6976L67.3744 55.5447H67.3831ZM65.9244 54.4604H67.025L66.4834 52.7943L65.9244 54.4604Z" fill="white"/>
<path d="M70.8598 56.5231H69.6194V51.2781H70.8598V53.0147C71.1393 52.7061 71.4276 52.521 71.9167 52.521C72.6854 52.521 73.227 53.0411 73.227 53.9932V56.5231H71.9866V54.4163C71.9866 53.9226 71.8119 53.6494 71.4363 53.6494C71.1306 53.6494 70.8598 53.8698 70.8598 54.4604V56.5231Z" fill="white"/>
</svg>
