<svg width="74" height="63" viewBox="0 0 74 63" fill="none" xmlns="http://www.w3.org/2000/svg">
<path d="M64.4795 43.0201H10.0225V32.3123H58.415C60.7848 34.6754 62.1096 35.9964 64.4713 38.3513V43.0119L64.4795 43.0201Z" fill="#0B0C0C"/>
<path d="M26.7101 37.6292H23.575V38.7533H26.7101V37.6292Z" fill="#63B22F"/>
<path d="M32.4125 39.3278C33.8032 39.3278 34.733 38.4006 34.733 37.0139C34.733 35.6272 33.8032 34.6426 32.4125 34.6426H27.8045V40.9524H29.4667V39.9596C29.4667 39.8693 29.4091 39.7873 29.3268 39.7545L28.8578 39.6314V39.3278H32.4125ZM29.4667 36.1113H32.3796C32.791 36.1113 33.0791 36.3903 33.0791 36.8088V37.1698C33.0791 37.5801 32.7993 37.8672 32.3796 37.8672H29.4667V36.1195V36.1113Z" fill="#63B22F"/>
<path d="M37.251 34.6426L34.0829 40.9524H35.9179L36.5598 39.5821H39.8512L40.493 40.9524H42.328L39.1518 34.6426H37.2674H37.251ZM37.1358 38.2939L38.1561 36.0949H38.2466L39.267 38.2939H37.1358Z" fill="#63B22F"/>
<path d="M44.9694 36.0046H47.2076C47.8001 36.0046 48.2197 36.3656 48.2938 36.981H49.956C49.8572 35.5123 48.8122 34.5522 47.2816 34.5522H44.8953C43.2743 34.5522 42.2046 35.6271 42.2046 37.2354V38.3513C42.2046 39.9595 43.2825 41.0344 44.8953 41.0344H47.2816C48.7957 41.0344 49.849 40.0826 49.956 38.6221H48.2938C48.2197 39.2128 47.8001 39.5739 47.2076 39.5739H44.9694C44.3111 39.5739 43.8668 39.1308 43.8668 38.4744V37.1041C43.8668 36.4477 44.3111 36.0046 44.9694 36.0046Z" fill="#63B22F"/>
<path d="M55.0659 37.7441L57.8472 34.6343H55.7983L53.6424 37.0548H52.334V34.6343H50.6718V40.9441H52.334V39.18C52.334 39.0897 52.2764 39.0077 52.1941 38.9749L51.7251 38.8518V38.5236H53.6424L55.7983 40.9523H57.8472L55.0659 37.8425V37.7523V37.7441Z" fill="#63B22F"/>
<path d="M21.8305 34.6343L20.0449 38.7533C19.9956 38.8764 19.9626 38.9995 19.9626 39.1308L19.9873 39.7297H19.2879L19.3126 39.0979C19.3126 38.9667 19.2879 38.8354 19.2303 38.7205L17.4941 34.6343H15.5356L18.5967 40.9441H20.6868L23.7478 34.6343H21.8223H21.8305Z" fill="#63B22F"/>
<path d="M63.2863 44.0539V47.0324L60.6038 49.7074L57.9213 52.3823H16.5807L12.9025 48.7145L11.2156 47.0324V44.0539H63.2863ZM64.4795 42.856H10.0225V47.5165C12.3923 49.8797 13.7171 51.2007 16.0787 53.5556H58.415C60.7848 51.1925 62.1096 49.8715 64.4713 47.5165V42.856H64.4795Z" fill="#0B0C0C"/>
<path d="M14.5976 49.806V45.8921H15.4287V49.0593H17.132V49.806H14.5976Z" fill="#0B0C0C"/>
<path d="M17.6998 49.806V45.8921H18.5309V49.806H17.6998Z" fill="#0B0C0C"/>
<path d="M20.2589 49.806V46.6388H19.0246V45.8921H22.3325V46.6388H21.0899V49.806H20.2589Z" fill="#0B0C0C"/>
<path d="M22.8262 49.806V45.8921H23.6573V47.4347H25.3524V45.8921H26.1834V49.806H25.3524V48.1485H23.6573V49.806H22.8262Z" fill="#0B0C0C"/>
<path d="M26.9981 49.806V45.8921H27.8292V49.806H26.9981Z" fill="#0B0C0C"/>
<path d="M31.853 48.3209C31.853 49.2481 31.2605 49.8881 30.2402 49.8881C29.2198 49.8881 28.6274 49.2481 28.6274 48.3209V45.9004H29.4585V48.3374C29.4585 48.8215 29.6971 49.1497 30.2484 49.1497C30.7997 49.1497 31.0301 48.8215 31.0301 48.3374V45.9004H31.8612V48.3209H31.853Z" fill="#0B0C0C"/>
<path d="M33.4 47.2132V49.8143H32.6429V45.9004H33.6386L34.7742 48.7969L35.9179 45.9004H36.9136V49.8143H36.1566V47.1968L35.1198 49.8143H34.4286L33.4 47.2132Z" fill="#0B0C0C"/>
<path d="M62.1919 53.5394H38.5922V42.8315H64.463V51.2748C63.5743 52.1609 63.0806 52.6532 62.1919 53.5394Z" fill="#0B0C0C"/>
<path d="M40.7811 48.8376H42.0154C42.0812 49.174 42.3527 49.3381 42.7312 49.3381C43.2497 49.3381 43.3731 49.0099 43.3731 48.7555C43.3731 48.5012 43.2167 48.1565 42.6819 48.1565C42.3363 48.1565 42.0812 48.296 41.9742 48.5996L40.9539 48.255L41.3818 45.5391H44.3605V46.6386H42.2787L42.1799 47.2622C42.4021 47.1555 42.649 47.1063 42.904 47.1063C44.1383 47.1063 44.6567 47.9514 44.6567 48.7637C44.6567 49.5761 44.0561 50.4376 42.7477 50.4376C41.6533 50.4376 40.8222 49.7648 40.7893 48.8376H40.7811Z" fill="white"/>
<path d="M45.8334 50.4049C45.3726 50.4049 45.0517 50.0848 45.0517 49.6254C45.0517 49.1659 45.3726 48.8376 45.8334 48.8376C46.2942 48.8376 46.6069 49.1577 46.6069 49.6254C46.6069 50.0931 46.2942 50.4049 45.8334 50.4049Z" fill="white"/>
<path d="M48.8945 45.4653C50.1288 45.4653 50.8447 46.3597 50.8447 47.9597C50.8447 49.5598 50.1535 50.4377 48.8945 50.4377C47.6355 50.4377 46.9443 49.5516 46.9443 47.9597C46.9443 46.3679 47.652 45.4653 48.8945 45.4653ZM48.8945 49.3382C49.3306 49.3382 49.5775 48.8541 49.5775 47.9597C49.5775 47.0654 49.3306 46.5648 48.8945 46.5648C48.4584 46.5648 48.2115 47.0654 48.2115 47.9597C48.2115 48.8541 48.4419 49.3382 48.8945 49.3382Z" fill="white"/>
<path d="M54.2102 49.5352H52.4904L52.1859 50.4378H50.8858L52.6961 45.5557H54.1032L55.897 50.4378H54.5064L54.2019 49.5352H54.2102ZM52.8442 48.5178H53.881L53.3708 46.967L52.8442 48.5178Z" fill="white"/>
<path d="M57.4852 50.4378H56.3167V45.5557H57.4852V47.1721C57.7485 46.8849 58.02 46.7126 58.4808 46.7126C59.205 46.7126 59.7151 47.1967 59.7151 48.0829V50.4378H58.5467V48.4767C58.5467 48.0172 58.3821 47.7629 58.0283 47.7629C57.7403 47.7629 57.4852 47.968 57.4852 48.5178V50.4378Z" fill="white"/>
<path d="M26.8747 32.3533H10.0224V29.0794L16.7535 22.5973C19.2632 20.1603 20.4399 18.8885 20.4399 17.0177C20.4399 15.4833 19.5018 14.5807 17.8643 14.5807C15.9553 14.5807 14.8856 15.6802 14.8856 17.5839H9.2901C9.2901 12.8084 12.9436 9.43604 18.1688 9.43604C22.9249 9.43604 26.4715 12.3735 26.4715 16.2792C26.4715 19.1182 25.4347 20.8249 21.2463 24.8619L18.8353 27.2004H26.8747V32.3451V32.3533Z" fill="#0B0C0C"/>
<path d="M35.2103 9.43604C41.0032 9.43604 44.3194 13.6125 44.3194 21.0957C44.3194 28.5789 41.0691 32.6815 35.2103 32.6815C29.3515 32.6815 26.1012 28.5379 26.1012 21.0957C26.1012 13.6535 29.4173 9.43604 35.2103 9.43604ZM35.2103 27.5368C37.251 27.5368 38.3948 25.264 38.3948 21.0875C38.3948 16.911 37.2592 14.5725 35.2103 14.5725C33.1614 14.5725 32.0258 16.911 32.0258 21.0875C32.0258 25.264 33.0955 27.5368 35.2103 27.5368Z" fill="#0B0C0C"/>
<path d="M56.7528 32.3533H50.3427L42.4432 10.0842H48.8204L53.7329 25.4937L58.8017 10.0842H64.7099L56.7528 32.3533Z" fill="#0B0C0C"/>
</svg>
