<svg width="274" height="206" viewBox="0 0 274 206" fill="none" xmlns="http://www.w3.org/2000/svg">
<path d="M47.0458 130.961H45.4018V134.367H43.1961V123.902H47.0458C47.8952 123.902 48.635 124.026 49.2515 124.3C49.868 124.561 50.3338 124.946 50.6763 125.468C51.0051 125.99 51.1695 126.621 51.1695 127.39C51.1695 128.159 51.0051 128.791 50.6763 129.327C50.3475 129.862 49.868 130.261 49.2515 130.549C48.635 130.824 47.9089 130.961 47.0458 130.961ZM47.0321 125.784H45.4018V129.107H47.0321C47.6486 129.107 48.1281 128.956 48.4706 128.64C48.8131 128.338 48.9775 127.926 48.9775 127.404C48.9775 126.882 48.8131 126.484 48.4706 126.196C48.1281 125.907 47.6486 125.77 47.0321 125.77" fill="#44D62C"/>
<path d="M57.3893 134.6C56.6358 134.6 55.9371 134.463 55.2932 134.188C54.6493 133.914 54.0876 133.529 53.5944 133.049C53.1149 132.554 52.7313 131.977 52.4573 131.318C52.1833 130.645 52.0463 129.931 52.0463 129.135C52.0463 128.338 52.1833 127.624 52.4573 126.965C52.7313 126.305 53.1012 125.729 53.5944 125.248C54.0876 124.767 54.6493 124.383 55.2932 124.108C55.9371 123.833 56.6358 123.696 57.3893 123.696C58.1428 123.696 58.8415 123.833 59.4991 124.108C60.1567 124.383 60.7184 124.754 61.2116 125.248C61.7048 125.729 62.0747 126.305 62.3487 126.965C62.6227 127.624 62.7597 128.352 62.7597 129.135C62.7597 129.917 62.6227 130.645 62.3487 131.318C62.0747 131.977 61.6911 132.554 61.2116 133.049C60.7184 133.543 60.1567 133.927 59.4991 134.188C58.8415 134.449 58.1428 134.6 57.3893 134.6ZM57.3893 132.609C57.8688 132.609 58.2935 132.513 58.6771 132.334C59.0607 132.156 59.3895 131.909 59.6498 131.579C59.9101 131.263 60.1156 130.892 60.2526 130.467C60.3896 130.041 60.4581 129.588 60.4581 129.121C60.4581 128.654 60.3896 128.201 60.2526 127.775C60.1156 127.363 59.9101 126.992 59.6498 126.676C59.3758 126.36 59.0607 126.113 58.6771 125.935C58.2935 125.756 57.8688 125.66 57.3893 125.66C56.9098 125.66 56.4851 125.756 56.1152 125.935C55.7316 126.113 55.4165 126.36 55.1425 126.676C54.8822 126.992 54.6767 127.363 54.526 127.775C54.389 128.187 54.3205 128.64 54.3205 129.121C54.3205 129.601 54.389 130.041 54.526 130.467C54.663 130.892 54.8685 131.263 55.1425 131.579C55.4028 131.895 55.7316 132.156 56.1152 132.334C56.4988 132.513 56.9235 132.609 57.3893 132.609Z" fill="#44D62C"/>
<path d="M71.8839 134.381L69.9248 127.061L67.9794 134.381H65.7463L63.0748 123.916H65.2257L66.9108 131.016L68.8288 123.916H71.0756L72.9388 131.043L74.6376 123.916H76.8022L74.117 134.381H71.8839Z" fill="#44D62C"/>
<path d="M85.077 132.458V134.381H78.0489V123.916H84.9674V125.839H80.2683V128.036H84.5427V129.945H80.2683V132.458H85.077Z" fill="#44D62C"/>
<path d="M88.9952 134.381H86.7895V123.916H90.8721C92.1873 123.916 93.2148 124.204 93.9409 124.795C94.667 125.385 95.0369 126.223 95.0369 127.308C95.0369 128.008 94.8314 128.626 94.4204 129.162C94.0094 129.698 93.434 130.096 92.6805 130.329L95.3657 134.367H92.7353L90.3789 130.673H88.9952V134.367V134.381ZM88.9952 125.756V128.86H90.7625C91.4338 128.86 91.9407 128.736 92.2832 128.475C92.6394 128.214 92.8038 127.83 92.8038 127.322C92.8038 126.814 92.6257 126.402 92.2832 126.154C91.9407 125.893 91.4201 125.77 90.7625 125.77H88.9952V125.756Z" fill="#44D62C"/>
<path d="M104.449 134.381H102.243V125.907H98.9551V123.916H107.751V125.907H104.449V134.381Z" fill="#44D62C"/>
<path d="M113.217 134.6C112.463 134.6 111.765 134.463 111.121 134.188C110.477 133.914 109.915 133.529 109.422 133.049C108.942 132.554 108.559 131.977 108.285 131.318C108.011 130.645 107.874 129.931 107.874 129.135C107.874 128.338 108.011 127.624 108.285 126.965C108.559 126.305 108.929 125.729 109.422 125.248C109.915 124.767 110.477 124.383 111.121 124.108C111.765 123.833 112.463 123.696 113.217 123.696C113.97 123.696 114.669 123.833 115.327 124.108C115.984 124.383 116.546 124.754 117.039 125.248C117.532 125.729 117.902 126.305 118.176 126.965C118.45 127.624 118.587 128.352 118.587 129.135C118.587 129.917 118.45 130.645 118.176 131.318C117.902 131.977 117.519 132.554 117.039 133.049C116.546 133.543 115.984 133.927 115.327 134.188C114.669 134.449 113.97 134.6 113.217 134.6ZM113.217 132.609C113.696 132.609 114.121 132.513 114.505 132.334C114.888 132.156 115.217 131.909 115.477 131.579C115.738 131.263 115.943 130.892 116.08 130.467C116.217 130.041 116.286 129.588 116.286 129.121C116.286 128.654 116.217 128.201 116.08 127.775C115.943 127.363 115.738 126.992 115.477 126.676C115.203 126.36 114.888 126.113 114.505 125.935C114.121 125.756 113.696 125.66 113.217 125.66C112.737 125.66 112.313 125.756 111.943 125.935C111.559 126.113 111.244 126.36 110.97 126.676C110.71 126.992 110.504 127.363 110.354 127.775C110.217 128.187 110.148 128.64 110.148 129.121C110.148 129.601 110.217 130.041 110.354 130.467C110.491 130.892 110.696 131.263 110.97 131.579C111.23 131.895 111.559 132.156 111.943 132.334C112.326 132.513 112.751 132.609 113.217 132.609Z" fill="#44D62C"/>
<path d="M124.821 134.6C124.067 134.6 123.368 134.463 122.725 134.188C122.081 133.914 121.519 133.529 121.026 133.049C120.546 132.554 120.163 131.977 119.889 131.318C119.615 130.645 119.478 129.931 119.478 129.135C119.478 128.338 119.615 127.624 119.889 126.965C120.163 126.305 120.533 125.729 121.026 125.248C121.519 124.767 122.081 124.383 122.725 124.108C123.368 123.833 124.067 123.696 124.821 123.696C125.574 123.696 126.273 123.833 126.93 124.108C127.588 124.383 128.15 124.754 128.643 125.248C129.136 125.729 129.506 126.305 129.78 126.965C130.054 127.624 130.191 128.352 130.191 129.135C130.191 129.917 130.054 130.645 129.78 131.318C129.506 131.977 129.122 132.554 128.643 133.049C128.15 133.543 127.588 133.927 126.93 134.188C126.273 134.449 125.574 134.6 124.821 134.6ZM124.821 132.609C125.3 132.609 125.725 132.513 126.108 132.334C126.492 132.156 126.821 131.909 127.081 131.579C127.341 131.263 127.547 130.892 127.684 130.467C127.821 130.041 127.889 129.588 127.889 129.121C127.889 128.654 127.821 128.201 127.684 127.775C127.547 127.363 127.341 126.992 127.081 126.676C126.807 126.36 126.492 126.113 126.108 125.935C125.725 125.756 125.3 125.66 124.821 125.66C124.341 125.66 123.916 125.756 123.547 125.935C123.163 126.113 122.848 126.36 122.574 126.676C122.314 126.992 122.108 127.363 121.957 127.775C121.82 128.187 121.752 128.64 121.752 129.121C121.752 129.601 121.82 130.041 121.957 130.467C122.094 130.892 122.3 131.263 122.574 131.579C122.834 131.895 123.163 132.156 123.547 132.334C123.93 132.513 124.355 132.609 124.821 132.609Z" fill="#44D62C"/>
<path d="M138.452 134.381H131.712V123.916H133.917V132.376H138.452V134.381Z" fill="#44D62C"/>
<path d="M147.974 131.126C147.974 131.785 147.809 132.376 147.467 132.884C147.124 133.392 146.645 133.79 146.015 134.092C145.384 134.381 144.631 134.532 143.754 134.532C142.877 134.532 142.124 134.381 141.48 134.092C140.836 133.79 140.329 133.378 139.959 132.829C139.589 132.279 139.384 131.648 139.315 130.906H141.548C141.576 131.483 141.768 131.95 142.138 132.293C142.507 132.637 143.028 132.801 143.699 132.801C144.083 132.801 144.412 132.746 144.699 132.637C144.987 132.527 145.206 132.376 145.371 132.17C145.535 131.964 145.617 131.73 145.617 131.455C145.617 131.126 145.494 130.865 145.247 130.659C145.001 130.453 144.658 130.316 144.22 130.233L142.507 129.904C142.11 129.835 141.74 129.725 141.398 129.574C141.055 129.423 140.768 129.231 140.507 128.997C140.261 128.764 140.055 128.475 139.918 128.159C139.767 127.83 139.699 127.445 139.699 127.02C139.699 126.402 139.863 125.852 140.206 125.358C140.535 124.877 141 124.493 141.59 124.218C142.179 123.943 142.85 123.806 143.603 123.806C144.357 123.806 145.083 123.957 145.7 124.245C146.316 124.534 146.809 124.946 147.179 125.481C147.563 126.017 147.768 126.635 147.809 127.363H145.576C145.549 126.992 145.467 126.676 145.289 126.388C145.124 126.113 144.891 125.893 144.617 125.742C144.33 125.591 144.014 125.523 143.645 125.523C143.275 125.523 142.987 125.578 142.74 125.701C142.494 125.825 142.302 125.976 142.165 126.182C142.028 126.388 141.959 126.608 141.959 126.855C141.959 127.088 142.028 127.281 142.151 127.445C142.288 127.596 142.453 127.72 142.672 127.816C142.877 127.912 143.11 127.981 143.371 128.022L145.165 128.393C146.083 128.571 146.782 128.887 147.261 129.327C147.741 129.766 147.987 130.371 147.987 131.14" fill="#44D62C"/>
<path d="M84.803 113.753C84.0358 113.753 83.1316 113.547 82.1041 113.149C81.0629 112.737 80.0902 112.16 79.186 111.432C78.2818 110.704 77.5557 109.839 77.0077 108.864C76.4734 107.903 76.3364 106.818 76.6241 105.651L82.1315 80.6696C82.3644 79.5297 82.9535 78.4585 83.8714 77.4697C84.803 76.4809 85.8442 75.602 86.9813 74.8741C88.1184 74.1463 89.2829 73.5557 90.42 73.1163C91.5571 72.6905 92.5024 72.4708 93.2148 72.4708H114.409C115.08 72.4708 115.888 72.6905 116.834 73.1163C117.779 73.542 118.669 74.1325 119.491 74.8604C120.3 75.5883 120.957 76.4535 121.437 77.4285C121.903 78.3899 122.026 79.4611 121.793 80.5872L116.286 105.568C116.012 106.749 115.368 107.848 114.395 108.823C113.395 109.812 112.272 110.691 111.052 111.419C109.833 112.146 108.586 112.737 107.34 113.135C106.107 113.547 105.093 113.753 104.339 113.753H84.7893H84.803ZM90.4611 102.835H103.654L107.942 83.4575H94.7492L90.4611 102.835Z" fill="white"/>
<path d="M128.684 113.753C127.711 113.753 126.711 113.533 125.697 113.108C124.697 112.682 123.793 112.05 123.04 111.254C122.286 110.443 121.711 109.468 121.341 108.342C120.971 107.216 120.93 105.966 121.231 104.607L128.369 72.4983H141.603L134.863 102.849H159.852L157.454 113.767H128.698L128.684 113.753Z" fill="white"/>
<path d="M190.17 113.753L191.814 106.433C192.321 105.087 193.019 103.824 193.869 102.698C194.718 101.572 195.677 100.473 196.718 99.4431L216.364 83.4025H196.855L199.321 72.4845H235.311L233.667 79.8044C233.147 81.1091 232.448 82.3588 231.571 83.4712C230.694 84.5973 229.749 85.7235 228.749 86.8084L209.048 102.849H228.489L226.091 113.767H190.17V113.753Z" fill="white"/>
<path d="M161.729 113.753L168.88 83.1965H158.098L160.509 72.4845H195.239L192.828 83.1965H181.991L174.839 113.753H161.729Z" fill="white"/>
<path d="M43.292 113.767L39.2094 72.4845L52.2518 72.512L53.6492 105.568L64.253 84.7759L57.8277 84.7621L64.0886 72.4983L77.0899 72.512L70.281 85.1467L76.6926 85.1604L61.2527 113.767H53.9917V113.781L43.292 113.767Z" fill="white"/>
</svg>
